# xmcd CD database file generated by Grip 2.96
# 
# Track frame offsets:
#       150
#       17937
#       42337
#       57765
#       80802
#       102322
#       116780
#       128570
#       138907
#       155745
#       176920
#       190642
# 
# Disc length: 2878 seconds
# 
# Revision: 0
# Processed by: cddbd v1.4PL0 Copyright (c) Steve Scherf et al.
# Submitted via: Grip 2.96
# 
DISCID=a60b3c0c
DTITLE=Various Artist - Shades of Blue
DYEAR=1900
DGENRE=
TTITLE0=Buddy Guy - Worried Mind
TTITLE1=BB King - Bad Case of Love
TTITLE2=Ernestine Anderson - Never Make Your Move Too Soon
TTITLE3=Albert Collins - Master Charge
TTITLE4=Jonny Lang - Wander This World
TTITLE5=Muddy Waters - Good Morning Little School Girl
TTITLE6=John Lee Hooker - Cry Before I Go
TTITLE7=Etta James - Tell Mama
TTITLE8=Lowell Fulson - Blue Shadow
TTITLE9=Susan Tedeschi - Just Won't Burn
TTITLE10=T-Bone Walker - Vacation
TTITLE11=Joe Louis Walker - Hiidden Feelings
EXTD=
EXTT0=
EXTT1=
EXTT2=
EXTT3=
EXTT4=
EXTT5=
EXTT6=
EXTT7=
EXTT8=
EXTT9=
EXTT10=
EXTT11=
PLAYORDER=
